<mxfile host="65bd71144e">
    <diagram id="9pnzLtJ3MblzJRS5AKII" name="第 1 页">
        <mxGraphModel dx="906" dy="659" grid="1" gridSize="10" guides="1" tooltips="1" connect="1" arrows="1" fold="1" page="1" pageScale="1" pageWidth="827" pageHeight="1169" math="0" shadow="0">
            <root>
                <mxCell id="0"/>
                <mxCell id="1" parent="0"/>
                <mxCell id="3" value="S" style="rounded=0;whiteSpace=wrap;html=1;fontSize=20;fontFamily=JetBrains Mono;" parent="1" vertex="1">
                    <mxGeometry x="160" y="240" width="40" height="40" as="geometry"/>
                </mxCell>
                <mxCell id="4" value="E(&lt;font face=&quot;思源黑体&quot;&gt;指数&lt;/font&gt;)" style="rounded=0;whiteSpace=wrap;html=1;fontSize=20;fontFamily=JetBrains Mono;" parent="1" vertex="1">
                    <mxGeometry x="200" y="240" width="160" height="40" as="geometry"/>
                </mxCell>
                <mxCell id="5" value="F(&lt;font face=&quot;思源黑体&quot;&gt;尾数&lt;/font&gt;)" style="rounded=0;whiteSpace=wrap;html=1;fontSize=20;fontFamily=JetBrains Mono;" parent="1" vertex="1">
                    <mxGeometry x="360" y="240" width="280" height="40" as="geometry"/>
                </mxCell>
                <mxCell id="6" value="&lt;font style=&quot;font-size: 14px;&quot;&gt;1 位&lt;/font&gt;" style="text;html=1;strokeColor=none;fillColor=none;align=center;verticalAlign=middle;whiteSpace=wrap;rounded=0;fontSize=20;fontFamily=思源黑体;" parent="1" vertex="1">
                    <mxGeometry x="150" y="280" width="60" height="30" as="geometry"/>
                </mxCell>
                <mxCell id="7" value="&lt;font style=&quot;font-size: 14px;&quot;&gt;8 位&lt;/font&gt;" style="text;html=1;strokeColor=none;fillColor=none;align=center;verticalAlign=middle;whiteSpace=wrap;rounded=0;fontSize=20;fontFamily=思源黑体;" parent="1" vertex="1">
                    <mxGeometry x="250" y="280" width="60" height="30" as="geometry"/>
                </mxCell>
                <mxCell id="8" value="&lt;font style=&quot;font-size: 14px;&quot;&gt;23 位&lt;/font&gt;" style="text;html=1;strokeColor=none;fillColor=none;align=center;verticalAlign=middle;whiteSpace=wrap;rounded=0;fontSize=20;fontFamily=思源黑体;" parent="1" vertex="1">
                    <mxGeometry x="470" y="280" width="60" height="30" as="geometry"/>
                </mxCell>
            </root>
        </mxGraphModel>
    </diagram>
</mxfile>